<?xml version="1.0" encoding="utf-8"?>
<svg viewBox="0 0 500 500" xmlns="http://www.w3.org/2000/svg">
  <g transform="matrix(0.039498, 0, 0, -0.039606, -3.724888, 497.467407)" fill="#000000" stroke="none">
    <path d="M8225 12399 c-82 -5 -215 -16 -295 -25 -80 -8 -271 -19 -425 -24 -539 -18 -781 -37 -1066 -85 -267 -45 -523 -124 -652 -200 -54 -32 -69 -36 -210 -52 -177 -20 -771 -24 -1347 -9 -275 7 -432 5 -775 -9 l-430 -17 -120 36 c-364 108 -844 203 -1266 251 -210 23 -476 45 -564 45 -143 0 -280 -48 -368 -129 -23 -21 -53 -42 -67 -46 -81 -25 -190 -113 -236 -190 -66 -114 -80 -219 -58 -436 11 -110 17 -284 19 -529 5 -587 45 -990 185 -1846 l49 -300 -19 -250 c-167 -2134 -188 -3003 -89 -3714 47 -339 126 -595 232 -750 36 -51 36 -44 1 -254 -38 -230 -88 -461 -174 -816 -77 -316 -80 -332 -105 -590 -53 -558 -58 -668 -59 -1115 -1 -394 1 -435 18 -490 34 -108 75 -176 155 -256 156 -156 356 -208 626 -164 82 13 113 13 340 -5 1751 -135 2685 -127 3390 31 225 50 485 148 586 220 30 21 39 22 282 20 355 -1 489 -14 602 -56 128 -48 229 -66 395 -72 155 -6 263 -29 690 -148 151 -42 190 -49 450 -75 490 -50 724 -63 1125 -64 468 0 727 21 1175 95 205 35 159 34 720 4 589 -31 867 -37 960 -21 234 42 412 205 470 432 25 98 25 177 -1 362 -50 358 -135 703 -230 934 l-30 73 -15 400 -16 400 37 60 c19 33 46 89 58 125 22 64 22 71 22 705 l0 640 37 125 c20 69 65 220 101 335 65 209 65 212 91 460 49 472 58 615 63 1013 7 478 -3 649 -59 1097 -20 163 -21 184 -9 520 33 986 -14 1590 -152 1978 -43 119 -76 176 -140 244 l-48 52 12 418 c11 392 13 423 36 503 62 218 81 465 44 573 -49 142 -182 258 -328 286 -26 5 -142 12 -258 16 -262 7 -456 18 -895 50 l-345 25 -190 65 -190 64 -250 26 c-137 14 -335 33 -440 41 -232 18 -845 26 -1050 13z" style="fill: rgb(27, 27, 27);"/>
  </g>
  <g transform="matrix(0.027344, 0, 0, -0.027344, 76.077164, 372.907043)" fill="#000000" stroke="none">
    <path d="M6017 9748 c-8 -13 -202 -383 -432 -823 -230 -440 -422 -806 -428 -812 -7 -10 176 -13 910 -13 l919 0 487 829 c268 456 487 832 487 835 0 3 -434 6 -965 6 l-965 0 -13 -22z" style="fill: rgb(113, 209, 180);"/>
    <path d="M8495 8953 c-235 -450 -432 -826 -437 -835 -8 -17 38 -18 894 -18 l903 0 485 826 c267 455 487 830 488 835 2 5 -408 9 -951 9 l-954 0 -428 -817z" style="fill: rgb(113, 209, 180);"/>
    <path d="M11691 9728 c-26 -61 -720 -1567 -737 -1600 l-15 -28 891 0 890 0 0 835 0 835 -505 0 -506 0 -18 -42z" style="fill: rgb(113, 209, 180);"/>
    <path d="M0 8920 l0 -820 2073 0 2072 0 445 812 c245 446 447 815 448 819 2 5 -1130 9 -2517 9 l-2521 0 0 -820z" style="fill: rgb(113, 209, 180);"/>
    <path d="M46 6833 c-3 -82 -9 -1475 -12 -3098 l-6 -2950 20 -87 c39 -162 111 -288 231 -409 124 -125 266 -206 451 -257 l95 -27 5540 -3 c4078 -2 5561 0 5620 8 399 57 721 341 796 704 18 88 19 201 19 3179 l0 3087 -6374 0 -6373 0 -7 -147z m5444 -1946 c78 -25 2048 -929 2225 -1020 296 -153 372 -391 189 -587 -96 -103 -29 -70 -2019 -985 -385 -177 -443 -196 -605 -196 -149 1 -246 37 -341 128 -63 60 -117 158 -140 253 -11 44 -14 243 -14 1025 0 1062 -2 1018 60 1150 76 160 201 248 375 263 96 9 176 0 270 -31z" style="fill: rgb(113, 209, 180);"/>
  </g>
</svg>