<?xml version="1.0" encoding="utf-8"?>
<svg viewBox="0 0 500 500" xmlns="http://www.w3.org/2000/svg">
  <g transform="matrix(0.039498, 0, 0, -0.039606, -3.724888, 497.467407)" fill="#000000" stroke="none">
    <path d="M8225 12399 c-82 -5 -215 -16 -295 -25 -80 -8 -271 -19 -425 -24 -539 -18 -781 -37 -1066 -85 -267 -45 -523 -124 -652 -200 -54 -32 -69 -36 -210 -52 -177 -20 -771 -24 -1347 -9 -275 7 -432 5 -775 -9 l-430 -17 -120 36 c-364 108 -844 203 -1266 251 -210 23 -476 45 -564 45 -143 0 -280 -48 -368 -129 -23 -21 -53 -42 -67 -46 -81 -25 -190 -113 -236 -190 -66 -114 -80 -219 -58 -436 11 -110 17 -284 19 -529 5 -587 45 -990 185 -1846 l49 -300 -19 -250 c-167 -2134 -188 -3003 -89 -3714 47 -339 126 -595 232 -750 36 -51 36 -44 1 -254 -38 -230 -88 -461 -174 -816 -77 -316 -80 -332 -105 -590 -53 -558 -58 -668 -59 -1115 -1 -394 1 -435 18 -490 34 -108 75 -176 155 -256 156 -156 356 -208 626 -164 82 13 113 13 340 -5 1751 -135 2685 -127 3390 31 225 50 485 148 586 220 30 21 39 22 282 20 355 -1 489 -14 602 -56 128 -48 229 -66 395 -72 155 -6 263 -29 690 -148 151 -42 190 -49 450 -75 490 -50 724 -63 1125 -64 468 0 727 21 1175 95 205 35 159 34 720 4 589 -31 867 -37 960 -21 234 42 412 205 470 432 25 98 25 177 -1 362 -50 358 -135 703 -230 934 l-30 73 -15 400 -16 400 37 60 c19 33 46 89 58 125 22 64 22 71 22 705 l0 640 37 125 c20 69 65 220 101 335 65 209 65 212 91 460 49 472 58 615 63 1013 7 478 -3 649 -59 1097 -20 163 -21 184 -9 520 33 986 -14 1590 -152 1978 -43 119 -76 176 -140 244 l-48 52 12 418 c11 392 13 423 36 503 62 218 81 465 44 573 -49 142 -182 258 -328 286 -26 5 -142 12 -258 16 -262 7 -456 18 -895 50 l-345 25 -190 65 -190 64 -250 26 c-137 14 -335 33 -440 41 -232 18 -845 26 -1050 13z" style="fill: rgb(27, 27, 27);"/>
    <g transform="matrix(9.619106, -3.875773, -3.731335, -9.210194, 5045.594238, 10705.038086)" style="">
      <g id="_x37__12_">
        <g>
          <path d="M679.503,349.728L151.09,9.181C119.742-7.703,83.832-5.951,83.832,54.688v670.58c0,55.408,38.525,64.17,67.258,45.506 l528.442-340.547C701.255,407.975,701.255,371.953,679.503,349.728z" style="fill: rgb(113, 209, 180);"/>
        </g>
      </g>
    </g>
    <g transform="matrix(7.277088, 0, 0, -7.257243, 94.30574, 12560.40332)"/>
    <g transform="matrix(7.277088, 0, 0, -7.257243, 94.30574, 12560.40332)"/>
    <g transform="matrix(7.277088, 0, 0, -7.257243, 94.30574, 12560.40332)"/>
    <g transform="matrix(7.277088, 0, 0, -7.257243, 94.30574, 12560.40332)"/>
    <g transform="matrix(7.277088, 0, 0, -7.257243, 94.30574, 12560.40332)"/>
    <g transform="matrix(7.277088, 0, 0, -7.257243, 94.30574, 12560.40332)"/>
    <g transform="matrix(7.277088, 0, 0, -7.257243, 94.30574, 12560.40332)"/>
    <g transform="matrix(7.277088, 0, 0, -7.257243, 94.30574, 12560.40332)"/>
    <g transform="matrix(7.277088, 0, 0, -7.257243, 94.30574, 12560.40332)"/>
    <g transform="matrix(7.277088, 0, 0, -7.257243, 94.30574, 12560.40332)"/>
    <g transform="matrix(7.277088, 0, 0, -7.257243, 94.30574, 12560.40332)"/>
    <g transform="matrix(7.277088, 0, 0, -7.257243, 94.30574, 12560.40332)"/>
    <g transform="matrix(7.277088, 0, 0, -7.257243, 94.30574, 12560.40332)"/>
    <g transform="matrix(7.277088, 0, 0, -7.257243, 94.30574, 12560.40332)"/>
    <g transform="matrix(7.277088, 0, 0, -7.257243, 94.30574, 12560.40332)"/>
  </g>
</svg>